<svg width="1240" height="360" viewBox="0 0 1240 360" fill="none" xmlns="http://www.w3.org/2000/svg">
  <rect width="1240" height="360" rx="40" fill="#140D0C"/>
  <rect x="18" y="18" width="1204" height="324" rx="28" stroke="#FFF4E8" stroke-opacity="0.12"/>
  <path d="M96 78H128V214C128 247.137 146.863 266 178 266H194V298H174C121.019 298 96 270.308 96 218V78Z" fill="#F8E7D0"/>
  <path d="M226 78H274V110H226V78Z" fill="#D9AA63"/>
  <path d="M226 128H274V298H242C233.163 298 226 290.837 226 282V128Z" fill="#F8E7D0"/>
  <path d="M276 78C276 95.6731 261.673 110 244 110V110V78H276V78Z" fill="#B56C52"/>
  <path d="M384 99H552V130H420V178H541V209H420V262H556V294H384V99Z" fill="#F8E7D0"/>
  <path d="M604 99H644L731 230V99H767V294H735L640 158V294H604V99Z" fill="#F8E7D0"/>
  <path d="M816 99H852V228C852 252.354 865.979 266 888 266H903V294H884C839.217 294 816 270.61 816 230V99Z" fill="#F8E7D0"/>
  <path d="M948 99H1108V130H984V178H1096V209H984V262H1112V294H948V99Z" fill="#F8E7D0"/>
  <path d="M1128 208H1164V236C1164 257.111 1178.04 269 1204 269H1224V294H1202C1153.38 294 1128 270.71 1128 232V208Z" fill="#D9AA63"/>
  <path d="M1128 99H1164V186H1128V99Z" fill="#F8E7D0"/>
</svg>
